<svg xmlns="http://www.w3.org/2000/svg" width="194" height="187" viewBox="0 0 194 187" version="1.1"><path d="M 15.299 7.960 C 8.697 11.985, 9 7.885, 9.004 93.200 C 9.007 168.103, 9.068 170.599, 10.960 173.701 C 14.985 180.304, 10.854 180, 96.500 180 C 182.146 180, 178.015 180.304, 182.040 173.701 C 183.932 170.599, 183.993 168.103, 183.996 93.200 C 184 7.885, 184.303 11.985, 177.701 7.960 C 174.598 6.068, 172.101 6.007, 96.500 6.007 C 20.899 6.007, 18.402 6.068, 15.299 7.960 M 44.797 89.756 C 37.260 108.865, 30.799 125.287, 30.440 126.250 C 29.851 127.825, 30.583 128, 37.763 128 L 45.740 128 48.735 119.750 L 51.731 111.500 66.058 111.500 L 80.385 111.500 83.588 119.500 L 86.792 127.500 95.019 127.792 C 102.570 128.061, 103.190 127.938, 102.561 126.299 C 102.184 125.316, 95.523 108.872, 87.759 89.756 L 73.642 55 66.071 55.006 L 58.500 55.012 44.797 89.756 M 127 75.500 L 127 85 117.500 85 L 108 85 108 91.500 L 108 98 117.500 98 L 127 98 127 107.500 L 127 117 133.500 117 L 140 117 140 107.500 L 140 98 149.500 98 L 159 98 159 91.500 L 159 85 149.500 85 L 140 85 140 75.500 L 140 66 133.500 66 L 127 66 127 75.500 M 61.136 86.361 C 58.861 92.610, 57 98.010, 57 98.361 C 57 98.712, 61.050 99, 66 99 C 70.950 99, 75 98.700, 75 98.332 C 75 96.838, 66.484 75, 65.902 75 C 65.555 75, 63.411 80.112, 61.136 86.361" stroke="none" fill="#72d13e" fill-rule="evenodd"/></svg>