<svg xmlns:dc="http://purl.org/dc/elements/1.1/" xmlns:cc="http://creativecommons.org/ns#" xmlns:rdf="http://www.w3.org/1999/02/22-rdf-syntax-ns#" xmlns:svg="http://www.w3.org/2000/svg" xmlns="http://www.w3.org/2000/svg" version="1.1" id="cif-0-svg" xml:space="preserve" viewBox="535.9456 163.8419 1399.645 1294.6081" width="46" height="46"><path id="strokePath1" style="fill:#6c757d;fill-opacity:1;fill-rule:evenodd;stroke:none" d="m 599.5666,1029 c 0,-8.78 7.121,-15.91 15.906,-15.91 l 0,0 c 8.785,0 15.902,7.13 15.902,15.91 l 0,95.43 c 0,8.786 -7.117,15.907 -15.902,15.907 l 0,0 c -8.785,0 -15.906,-7.121 -15.906,-15.907 l 0,-95.43"></path><path id="strokePath2" style="fill:#6c757d;fill-opacity:1;fill-rule:evenodd;stroke:none" d="m 663.1876,1029 c 0,-8.78 7.121,-15.91 15.902,-15.91 l 0,0 c 8.785,0 15.906,7.13 15.906,15.91 l 0,95.43 c 0,8.786 -7.121,15.907 -15.906,15.907 l 0,0 c -8.781,0 -15.902,-7.121 -15.902,-15.907 l 0,-95.43"></path><path id="strokePath3" style="fill:#6c757d;fill-opacity:1;fill-rule:evenodd;stroke:none" d="m 726.8046,1029 c 0,-8.78 7.121,-15.91 15.91,-15.91 l 0,0 c 8.781,0 15.903,7.13 15.903,15.91 l 0,95.43 c 0,8.786 -7.122,15.907 -15.903,15.907 l 0,0 c -8.789,0 -15.91,-7.121 -15.91,-15.907 l 0,-95.43"></path><path id="strokePath4" style="fill:#6c757d;fill-opacity:1;fill-rule:evenodd;stroke:none" d="m 917.6676,1029 c 0,-8.78 7.121,-15.91 15.907,-15.91 l 0,0 c 8.78502,0 15.90202,7.13 15.90202,15.91 l 0,95.43 c 0,8.786 -7.117,15.907 -15.90202,15.907 l 0,0 c -8.786,0 -15.907,-7.121 -15.907,-15.907 l 0,-95.43"></path><path id="strokePath5" style="fill:#6c757d;fill-opacity:1;fill-rule:evenodd;stroke:none" d="m 981.28862,1029 c 0,-8.78 7.122,-15.91 15.903,-15.91 l 0.004,0 c 8.78498,0 15.90498,7.13 15.90498,15.91 l 0,95.43 c 0,8.786 -7.12,15.907 -15.90498,15.907 l -0.004,0 c -8.781,0 -15.903,-7.121 -15.903,-15.907 l 0,-95.43"></path><path id="strokePath6" style="fill:#6c757d;fill-opacity:1;fill-rule:evenodd;stroke:none" d="m 1044.9106,1029 c 0,-8.78 7.12,-15.91 15.91,-15.91 l 0,0 c 8.78,0 15.9,7.13 15.9,15.91 l 0,95.43 c 0,8.786 -7.12,15.907 -15.9,15.907 l 0,0 c -8.79,0 -15.91,-7.121 -15.91,-15.907 l 0,-95.43"></path><path id="strokePath7" style="fill:#6c757d;fill-opacity:1;fill-rule:evenodd;stroke:none" d="m 599.5666,1283.481 c 0,-8.781 7.121,-15.906 15.906,-15.906 l 0,0 c 8.785,0 15.902,7.125 15.902,15.906 l 0,95.43 c 0,8.785 -7.117,15.906 -15.902,15.906 l 0,0 c -8.785,0 -15.906,-7.121 -15.906,-15.906 l 0,-95.43"></path><path id="strokePath8" style="fill:#6c757d;fill-opacity:1;fill-rule:evenodd;stroke:none" d="m 663.1876,1283.481 c 0,-8.781 7.121,-15.906 15.902,-15.906 l 0,0 c 8.785,0 15.906,7.125 15.906,15.906 l 0,95.43 c 0,8.785 -7.121,15.906 -15.906,15.906 l 0,0 c -8.781,0 -15.902,-7.121 -15.902,-15.906 l 0,-95.43"></path><path id="strokePath9" style="fill:#6c757d;fill-opacity:1;fill-rule:evenodd;stroke:none" d="m 726.8046,1283.481 c 0,-8.781 7.121,-15.906 15.91,-15.906 l 0,0 c 8.781,0 15.903,7.125 15.903,15.906 l 0,95.43 c 0,8.785 -7.122,15.906 -15.903,15.906 l 0,0 c -8.789,0 -15.91,-7.121 -15.91,-15.906 l 0,-95.43"></path><path id="strokePath10" style="fill:#6c757d;fill-opacity:1;fill-rule:evenodd;stroke:none" d="m 631.3746,997.19 c 0,-8.78 7.121,-15.9 15.907,-15.9 8.785,0 15.906,7.12 15.906,15.9 0,8.78 -7.121,15.9 -15.906,15.9 -8.786,0 -15.907,-7.12 -15.907,-15.9"></path><path id="strokePath11" style="fill:#6c757d;fill-opacity:1;fill-rule:evenodd;stroke:none" d="m 694.9956,997.19 c 0,-8.78 7.122,-15.9 15.907,-15.9 8.785,0 15.902,7.12 15.902,15.9 0,8.78 -7.117,15.9 -15.902,15.9 -8.785,0 -15.907,-7.12 -15.907,-15.9"></path><path id="strokePath12" style="fill:#6c757d;fill-opacity:1;fill-rule:evenodd;stroke:none" d="m 949.47662,997.19 c 0,-8.78 7.125,-15.9 15.906,-15.9 8.785,0 15.906,7.12 15.906,15.9 0,8.78 -7.121,15.9 -15.906,15.9 -8.781,0 -15.906,-7.12 -15.906,-15.9"></path><path id="strokePath13" style="fill:#6c757d;fill-opacity:1;fill-rule:evenodd;stroke:none" d="m 1013.1006,997.19 c 0,-8.78 7.12,-15.9 15.9,-15.9 8.79,0 15.91,7.12 15.91,15.9 0,8.78 -7.12,15.9 -15.91,15.9 -8.78,0 -15.9,-7.12 -15.9,-15.9"></path><path id="strokePath14" style="fill:#6c757d;fill-opacity:1;fill-rule:evenodd;stroke:none" d="m 981.28862,965.38 c 0,-8.79 7.122,-15.91 15.907,-15.91 8.78498,0 15.90498,7.12 15.90498,15.91 0,8.78 -7.12,15.91 -15.90498,15.91 -8.785,0 -15.907,-7.13 -15.907,-15.91"></path><path id="strokePath15" style="fill:#6c757d;fill-opacity:1;fill-rule:evenodd;stroke:none" d="m 822.2386,933.57 c 0,-8.78 7.121,-15.91 15.906,-15.91 l 0,0 c 8.781,0 15.902,7.13 15.902,15.91 l 0,508.962 c 0,8.785 -7.121,15.906 -15.902,15.906 l 0,0 c -8.785,0 -15.906,-7.121 -15.906,-15.906 l 0,-508.962"></path><path id="strokePath16" style="fill:#6c757d;fill-opacity:1;fill-rule:evenodd;stroke:none" d="m 1140.3406,933.57 c 0,-8.78 7.12,-15.91 15.91,-15.91 l 0,0 c 8.78,0 15.9,7.13 15.9,15.91 l 0,508.962 c 0,8.785 -7.12,15.906 -15.9,15.906 l 0,0 c -8.79,0 -15.91,-7.121 -15.91,-15.906 l 0,-508.962"></path><path id="strokePath17" style="fill:#6c757d;fill-opacity:1;fill-rule:evenodd;stroke:none" d="m 885.8596,1315.29 c 0,-8.781 7.117,-15.902 15.902,-15.902 l 0,0 c 8.785,0 15.906,7.121 15.906,15.902 l 0,127.242 c 0,8.785 -7.121,15.906 -15.906,15.906 l 0,0 c -8.785,0 -15.902,-7.121 -15.902,-15.906 l 0,-127.242"></path><path id="strokePath18" style="fill:#6c757d;fill-opacity:1;fill-rule:evenodd;stroke:none" d="m 1076.7206,1315.29 c 0,-8.781 7.12,-15.902 15.9,-15.902 l 0,0 c 8.79,0 15.91,7.121 15.91,15.902 l 0,127.242 c 0,8.785 -7.12,15.906 -15.91,15.906 l 0,0 c -8.78,0 -15.9,-7.121 -15.9,-15.906 l 0,-127.242"></path><path id="strokePath19" style="fill:#6c757d;fill-opacity:1;fill-rule:evenodd;stroke:none" d="m 965.38262,1267.575 c -8.781,0 -15.906,-7.117 -15.906,-15.902 l 0,0 c 0,-8.785 7.125,-15.907 15.906,-15.907 l 63.61798,0 c 8.79,0 15.91,7.122 15.91,15.907 l 0,0 c 0,8.785 -7.12,15.902 -15.91,15.902 l -63.61798,0"></path><path id="strokePath20" style="fill:#6c757d;fill-opacity:1;fill-rule:evenodd;stroke:none" d="m 917.6676,1283.481 c 0,-8.781 7.121,-15.906 15.907,-15.906 8.78502,0 15.90202,7.125 15.90202,15.906 0,8.785 -7.117,15.907 -15.90202,15.907 -8.786,0 -15.907,-7.122 -15.907,-15.907"></path><path id="strokePath21" style="fill:#6c757d;fill-opacity:1;fill-rule:evenodd;stroke:none" d="m 1044.9106,1283.481 c 0,-8.781 7.12,-15.906 15.91,-15.906 8.78,0 15.9,7.125 15.9,15.906 0,8.785 -7.12,15.907 -15.9,15.907 -8.79,0 -15.91,-7.122 -15.91,-15.907"></path><path id="strokePath22" style="fill:#6c757d;fill-opacity:1;fill-rule:evenodd;stroke:none" d="m 901.7616,885.86 c -8.785,0 -15.902,-7.13 -15.902,-15.91 l 0,0 c 0,-8.79 7.117,-15.91 15.902,-15.91 l 190.859,0 c 8.79,0 15.91,7.12 15.91,15.91 l 0,0 c 0,8.78 -7.12,15.91 -15.91,15.91 l -190.859,0"></path><path id="strokePath23" style="fill:#6c757d;fill-opacity:1;fill-rule:evenodd;stroke:none" d="m 854.0466,901.76 c 0,-8.79 7.121,-15.9 15.906,-15.9 8.786,0 15.907,7.11 15.907,15.9 0,8.78 -7.121,15.9 -15.907,15.9 -8.785,0 -15.906,-7.12 -15.906,-15.9"></path><path id="strokePath24" style="fill:#6c757d;fill-opacity:1;fill-rule:evenodd;stroke:none" d="m 1108.5306,901.76 c 0,-8.79 7.12,-15.9 15.9,-15.9 8.79,0 15.91,7.11 15.91,15.9 0,8.78 -7.12,15.9 -15.91,15.9 -8.78,0 -15.9,-7.12 -15.9,-15.9"></path><path id="strokePath25" style="fill:#6c757d;fill-opacity:1;fill-rule:evenodd;stroke:none" d="m 1363.0106,997.19 c 0,-8.78 7.12,-15.9 15.91,-15.9 l 0,0 c 8.78,0 15.9,7.12 15.9,15.9 l 0,190.862 c 0,8.781 -7.12,15.906 -15.9,15.906 l 0,0 c -8.79,0 -15.91,-7.125 -15.91,-15.906 l 0,-190.862"></path><path id="strokePath26" style="fill:#6c757d;fill-opacity:1;fill-rule:evenodd;stroke:none" d="m 1426.6306,997.19 c 0,-8.78 7.12,-15.9 15.91,-15.9 l 0,0 c 8.78,0 15.9,7.12 15.9,15.9 l 0,190.862 c 0,8.781 -7.12,15.906 -15.9,15.906 l 0,0 c -8.79,0 -15.91,-7.125 -15.91,-15.906 l 0,-190.862"></path><path id="strokePath27" style="fill:#6c757d;fill-opacity:1;fill-rule:evenodd;stroke:none" d="m 1394.8206,965.38 c 0,-8.79 7.12,-15.91 15.91,-15.91 8.78,0 15.9,7.12 15.9,15.91 0,8.78 -7.12,15.91 -15.9,15.91 -8.79,0 -15.91,-7.13 -15.91,-15.91"></path><path id="strokePath28" style="fill:#6c757d;fill-opacity:1;fill-rule:evenodd;stroke:none" d="m 1744.7306,997.19 c 0,-8.78 7.12,-15.9 15.91,-15.9 l 0,0 c 8.79,0 15.9,7.12 15.9,15.9 l 0,190.862 c 0,8.781 -7.11,15.906 -15.9,15.906 l 0,0 c -8.79,0 -15.91,-7.125 -15.91,-15.906 l 0,-190.862"></path><path id="strokePath29" style="fill:#6c757d;fill-opacity:1;fill-rule:evenodd;stroke:none" d="m 1808.3506,997.19 c 0,-8.78 7.13,-15.9 15.91,-15.9 l 0,0 c 8.79,0 15.9,7.12 15.9,15.9 l 0,190.862 c 0,8.781 -7.11,15.906 -15.9,15.906 l 0,0 c -8.78,0 -15.91,-7.125 -15.91,-15.906 l 0,-190.862"></path><path id="strokePath30" style="fill:#6c757d;fill-opacity:1;fill-rule:evenodd;stroke:none" d="m 1776.5406,965.38 c 0,-8.79 7.12,-15.91 15.91,-15.91 8.78,0 15.9,7.12 15.9,15.91 0,8.78 -7.12,15.91 -15.9,15.91 -8.79,0 -15.91,-7.13 -15.91,-15.91"></path><path id="strokePath31" style="fill:#6c757d;fill-opacity:1;fill-rule:evenodd;stroke:none" d="m 1522.0606,1124.43 c 0,-8.78 7.12,-15.91 15.91,-15.91 l 0,0 c 8.78,0 15.9,7.13 15.9,15.91 l 0,190.86 c 0,8.785 -7.12,15.906 -15.9,15.906 l 0,0 c -8.79,0 -15.91,-7.121 -15.91,-15.906 l 0,-190.86"></path><path id="strokePath32" style="fill:#6c757d;fill-opacity:1;fill-rule:evenodd;stroke:none" d="m 1553.8706,1092.62 c 0,-8.78 7.12,-15.9 15.91,-15.9 8.78,0 15.9,7.12 15.9,15.9 0,8.78 -7.12,15.9 -15.9,15.9 -8.79,0 -15.91,-7.12 -15.91,-15.9"></path><path id="strokePath33" style="fill:#6c757d;fill-opacity:1;fill-rule:evenodd;stroke:none" d="m 1585.6806,1060.81 c 0,-8.78 7.12,-15.91 15.91,-15.91 8.78,0 15.9,7.13 15.9,15.91 0,8.78 -7.12,15.91 -15.9,15.91 -8.79,0 -15.91,-7.13 -15.91,-15.91"></path><path id="strokePath34" style="fill:#6c757d;fill-opacity:1;fill-rule:evenodd;stroke:none" d="m 1617.4906,1092.62 c 0,-8.78 7.12,-15.9 15.91,-15.9 8.78,0 15.9,7.12 15.9,15.9 0,8.78 -7.12,15.9 -15.9,15.9 -8.79,0 -15.91,-7.12 -15.91,-15.9"></path><path id="strokePath35" style="fill:#6c757d;fill-opacity:1;fill-rule:evenodd;stroke:none" d="m 1649.3006,1124.43 c 0,-8.78 7.13,-15.91 15.91,-15.91 l 0,0 c 8.78,0 15.9,7.13 15.9,15.91 l 0,190.86 c 0,8.785 -7.12,15.906 -15.9,15.906 l 0,0 c -8.78,0 -15.91,-7.121 -15.91,-15.906 l 0,-190.86"></path><path id="strokePath36" style="fill:#6c757d;fill-opacity:1;fill-rule:evenodd;stroke:none" d="m 1506.1606,1394.817 c -8.79,0 -15.91,-7.121 -15.91,-15.906 l 0,0 c 0,-8.781 7.12,-15.902 15.91,-15.902 l 190.86,0 c 8.78,0 15.91,7.121 15.91,15.902 l 0,0 c 0,8.785 -7.13,15.906 -15.91,15.906 l -190.86,0"></path><path id="strokePath37" style="fill:#6c757d;fill-opacity:1;fill-rule:evenodd;stroke:none" d="m 1474.3506,1458.438 c -8.79,0 -15.91,-7.121 -15.91,-15.906 l 0,0 c 0,-8.785 7.12,-15.902 15.91,-15.902 l 254.48,0 c 8.78,0 15.9,7.117 15.9,15.902 l 0,0 c 0,8.785 -7.12,15.906 -15.9,15.906 l -254.48,0"></path><path id="strokePath38" style="fill:#6c757d;fill-opacity:1;fill-rule:evenodd;stroke:none" d="m 1903.7806,854.04 0,-15.9 c 0,-8.79 7.13,-15.91 15.91,-15.91 l 0,0 c 8.79,0 15.9,7.12 15.9,15.91 l 0,604.392 c 0,8.785 -7.11,15.906 -15.9,15.906 l 0,0 c -8.78,0 -15.91,-7.121 -15.91,-15.906 l 0,-556.672 -604.39,0 0,556.672 c 0,8.785 -7.12,15.906 -15.9,15.906 l 0,0 c -8.79,0 -15.91,-7.121 -15.91,-15.906 l 0,-604.392 c 0,-8.79 7.12,-15.91 15.91,-15.91 l 0,0 c 8.78,0 15.9,7.12 15.9,15.91 l 0,15.9 604.39,0"></path><path id="strokePath39" style="fill:#6c757d;fill-opacity:1;fill-rule:evenodd;stroke:none" d="m 790.4296,567.75 0,302.2 c 0,8.78 -7.125,15.91 -15.906,15.91 l -206.77,0 0,556.672 c 0,8.785 -7.121,15.906 -15.902,15.906 l 0,0 c -8.785,0 -15.906,-7.121 -15.906,-15.906 l 0,-604.392 c 0,-8.79 7.121,-15.91 15.906,-15.91 l 0,0 c 8.781,0 15.902,7.12 15.902,15.91 l 0,15.9 190.864,0 0,-334 c 0,-8.79 7.121,-15.91 15.906,-15.91 l 0,0 c 8.781,0 15.906,7.12 15.906,15.91 l 0,15.9 95.43,0 0,-206.76 c 0,-8.79 7.117,-15.91 15.902,-15.91 l 0,0 c 8.785,0 15.906,7.12 15.906,15.91 l 0,222.66 c 0,8.79 -7.121,15.91 -15.906,15.91 l -111.332,0"></path><path id="strokePath40" style="fill:#6c757d;fill-opacity:1;fill-rule:evenodd;stroke:none" d="m 917.6676,647.28 c 0,-8.79 7.121,-15.91 15.907,-15.91 8.78502,0 15.90202,7.12 15.90202,15.91 0,8.78 -7.117,15.9 -15.90202,15.9 -8.786,0 -15.907,-7.12 -15.907,-15.9"></path><path id="strokePath41" style="fill:#6c757d;fill-opacity:1;fill-rule:evenodd;stroke:none" d="m 1044.9106,647.28 c 0,-8.79 7.12,-15.91 15.91,-15.91 8.78,0 15.9,7.12 15.9,15.91 0,8.78 -7.12,15.9 -15.9,15.9 -8.79,0 -15.91,-7.12 -15.91,-15.9"></path><path id="strokePath42" style="fill:#6c757d;fill-opacity:1;fill-rule:evenodd;stroke:none" d="m 790.4296,488.22 c 0,-8.78 7.117,-15.9 15.902,-15.9 8.786,0 15.907,7.12 15.907,15.9 0,8.79 -7.121,15.91 -15.907,15.91 -8.785,0 -15.902,-7.12 -15.902,-15.91"></path><path id="strokePath43" style="fill:#6c757d;fill-opacity:1;fill-rule:evenodd;stroke:none" d="m 822.2386,456.41 c 0,-8.78 7.121,-15.9 15.906,-15.9 8.781,0 15.902,7.12 15.902,15.9 0,8.79 -7.121,15.91 -15.902,15.91 -8.785,0 -15.906,-7.12 -15.906,-15.91"></path><path id="strokePath44" style="fill:#6c757d;fill-opacity:1;fill-rule:evenodd;stroke:none" d="m 917.6676,297.36 c 0,-8.78 7.121,-15.9 15.907,-15.9 8.78502,0 15.90202,7.12 15.90202,15.9 0,8.79 -7.117,15.91 -15.90202,15.91 -8.786,0 -15.907,-7.12 -15.907,-15.91"></path><path id="strokePath45" style="fill:#6c757d;fill-opacity:1;fill-rule:evenodd;stroke:none" d="m 949.47662,265.56 c 0,-8.79 7.125,-15.91 15.906,-15.91 8.785,0 15.906,7.12 15.906,15.91 0,8.78 -7.121,15.9 -15.906,15.9 -8.781,0 -15.906,-7.12 -15.906,-15.9"></path><path id="strokePath46" style="fill:#6c757d;fill-opacity:1;fill-rule:evenodd;stroke:none" d="m 1172.1506,488.22 c 0,-8.78 7.12,-15.9 15.9,-15.9 8.79,0 15.91,7.12 15.91,15.9 0,8.79 -7.12,15.91 -15.91,15.91 -8.78,0 -15.9,-7.12 -15.9,-15.91"></path><path id="strokePath47" style="fill:#6c757d;fill-opacity:1;fill-rule:evenodd;stroke:none" d="m 1140.3406,456.41 c 0,-8.78 7.12,-15.9 15.91,-15.9 8.78,0 15.9,7.12 15.9,15.9 0,8.79 -7.12,15.91 -15.9,15.91 -8.79,0 -15.91,-7.12 -15.91,-15.91"></path><path id="strokePath48" style="fill:#6c757d;fill-opacity:1;fill-rule:evenodd;stroke:none" d="m 1044.9106,297.36 c 0,-8.78 7.12,-15.9 15.91,-15.9 8.78,0 15.9,7.12 15.9,15.9 0,8.79 -7.12,15.91 -15.9,15.91 -8.79,0 -15.91,-7.12 -15.91,-15.91"></path><path id="strokePath49" style="fill:#6c757d;fill-opacity:1;fill-rule:evenodd;stroke:none" d="m 1013.1006,265.56 c 0,-8.79 7.12,-15.91 15.9,-15.91 8.79,0 15.91,7.12 15.91,15.91 0,8.78 -7.12,15.9 -15.91,15.9 -8.78,0 -15.9,-7.12 -15.9,-15.9"></path><path id="strokePath50" style="fill:#6c757d;fill-opacity:1;fill-rule:evenodd;stroke:none" d="m 885.8596,679.09 c 0,-8.79 7.117,-15.91 15.902,-15.91 l 0,0 c 8.785,0 15.906,7.12 15.906,15.91 l 0,95.43 c 0,8.78 -7.121,15.9 -15.906,15.9 l 0,0 c -8.785,0 -15.902,-7.12 -15.902,-15.9 l 0,-95.43"></path><path id="strokePath51" style="fill:#6c757d;fill-opacity:1;fill-rule:evenodd;stroke:none" d="m 949.47662,679.09 c 0,-8.79 7.125,-15.91 15.906,-15.91 l 0,0 c 8.785,0 15.906,7.12 15.906,15.91 l 0,95.43 c 0,8.78 -7.121,15.9 -15.906,15.9 l 0,0 c -8.781,0 -15.906,-7.12 -15.906,-15.9 l 0,-95.43"></path><path id="strokePath52" style="fill:#6c757d;fill-opacity:1;fill-rule:evenodd;stroke:none" d="m 1013.1006,679.09 c 0,-8.79 7.12,-15.91 15.9,-15.91 l 0,0 c 8.79,0 15.91,7.12 15.91,15.91 l 0,95.43 c 0,8.78 -7.12,15.9 -15.91,15.9 l 0,0 c -8.78,0 -15.9,-7.12 -15.9,-15.9 l 0,-95.43"></path><path id="strokePath53" style="fill:#6c757d;fill-opacity:1;fill-rule:evenodd;stroke:none" d="m 1076.7206,679.09 c 0,-8.79 7.12,-15.91 15.9,-15.91 l 0,0 c 8.79,0 15.91,7.12 15.91,15.91 l 0,95.43 c 0,8.78 -7.12,15.9 -15.91,15.9 l 0,0 c -8.78,0 -15.9,-7.12 -15.9,-15.9 l 0,-95.43"></path><path id="strokePath54" style="fill:#6c757d;fill-opacity:1;fill-rule:evenodd;stroke:none" d="m 1235.7706,854.04 0,588.492 c 0,8.785 -7.12,15.906 -15.91,15.906 l 0,0 c -8.78,0 -15.9,-7.121 -15.9,-15.906 l 0,-874.782 -111.34,0 c -8.78,0 -15.9,-7.12 -15.9,-15.91 l 0,-222.66 c 0,-8.79 7.12,-15.91 15.9,-15.91 l 0,0 c 8.79,0 15.91,7.12 15.91,15.91 l 0,206.76 95.43,0 0,-15.9 c 0,-8.79 7.12,-15.91 15.9,-15.91 l 0,0 c 8.79,0 15.91,7.12 15.91,15.91 l 0,334"></path><path id="strokePath55" style="fill:#6c757d;fill-opacity:1;fill-rule:evenodd;stroke:none" d="m 599.5666,710.9 c 0,-8.79 7.121,-15.91 15.906,-15.91 8.785,0 15.902,7.12 15.902,15.91 0,8.78 -7.117,15.9 -15.902,15.9 -8.785,0 -15.906,-7.12 -15.906,-15.9"></path><path id="strokePath56" style="fill:#6c757d;fill-opacity:1;fill-rule:evenodd;stroke:none" d="m 567.7536,742.71 c 0,-8.79 7.121,-15.91 15.907,-15.91 8.785,0 15.906,7.12 15.906,15.91 0,8.78 -7.121,15.9 -15.906,15.9 -8.786,0 -15.907,-7.12 -15.907,-15.9"></path><path id="strokePath57" style="fill:#6c757d;fill-opacity:1;fill-rule:evenodd;stroke:none" d="m 535.9456,774.52 c 0,-8.78 7.121,-15.91 15.906,-15.91 8.781,0 15.902,7.13 15.902,15.91 0,8.78 -7.121,15.9 -15.902,15.9 -8.785,0 -15.906,-7.12 -15.906,-15.9"></path><path id="strokePath58" style="fill:#6c757d;fill-opacity:1;fill-rule:evenodd;stroke:none" d="m 647.2816,694.99 c -8.786,0 -15.907,-7.12 -15.907,-15.9 l 0,0 c 0,-8.79 7.121,-15.91 15.907,-15.91 l 63.621,0 c 8.785,0 15.902,7.12 15.902,15.91 l 0,0 c 0,8.78 -7.117,15.9 -15.902,15.9 l -63.621,0"></path><path id="strokePath59" style="fill:#6c757d;fill-opacity:1;fill-rule:evenodd;stroke:none" d="m 1331.2006,774.52 c 0,-8.78 7.12,-15.91 15.9,-15.91 8.79,0 15.91,7.13 15.91,15.91 0,8.78 -7.12,15.9 -15.91,15.9 -8.78,0 -15.9,-7.12 -15.9,-15.9"></path><path id="strokePath60" style="fill:#6c757d;fill-opacity:1;fill-rule:evenodd;stroke:none" d="m 1299.3906,806.33 c 0,-8.79 7.12,-15.91 15.91,-15.91 8.78,0 15.9,7.12 15.9,15.91 0,8.78 -7.12,15.9 -15.9,15.9 -8.79,0 -15.91,-7.12 -15.91,-15.9"></path><path id="strokePath61" style="fill:#6c757d;fill-opacity:1;fill-rule:evenodd;stroke:none" d="m 1378.9206,758.61 c -8.79,0 -15.91,-7.12 -15.91,-15.9 l 0,0 c 0,-8.79 7.12,-15.91 15.91,-15.91 l 63.62,0 c 8.78,0 15.9,7.12 15.9,15.91 l 0,0 c 0,8.78 -7.12,15.9 -15.9,15.9 l -63.62,0"></path><path id="strokePath62" style="fill:#6c757d;fill-opacity:1;fill-rule:evenodd;stroke:none" d="m 1522.0606,647.28 c 0,-8.79 7.12,-15.91 15.91,-15.91 l 0,0 c 8.78,0 15.9,7.12 15.9,15.91 l 0,127.24 c 0,8.78 -7.12,15.9 -15.9,15.9 l 0,0 c -8.79,0 -15.91,-7.12 -15.91,-15.9 l 0,-127.24"></path><path id="strokePath63" style="fill:#6c757d;fill-opacity:1;fill-rule:evenodd;stroke:none" d="m 1553.8706,551.84 c 0,-8.78 7.12,-15.9 15.91,-15.9 l 0,0 c 8.78,0 15.9,7.12 15.9,15.9 l 0,63.63 c 0,8.78 -7.12,15.9 -15.9,15.9 l 0,0 c -8.79,0 -15.91,-7.12 -15.91,-15.9 l 0,-63.63"></path><path id="strokePath64" style="fill:#6c757d;fill-opacity:1;fill-rule:evenodd;stroke:none" d="m 1840.1606,774.52 c 0,-8.78 7.12,-15.91 15.91,-15.91 8.78,0 15.91,7.13 15.91,15.91 0,8.78 -7.13,15.9 -15.91,15.9 -8.79,0 -15.91,-7.12 -15.91,-15.9"></path><path id="strokePath65" style="fill:#6c757d;fill-opacity:1;fill-rule:evenodd;stroke:none" d="m 1871.9806,806.33 c 0,-8.79 7.12,-15.91 15.9,-15.91 8.78,0 15.9,7.12 15.9,15.91 0,8.78 -7.12,15.9 -15.9,15.9 -8.78,0 -15.9,-7.12 -15.9,-15.9"></path><path id="strokePath66" style="fill:#6c757d;fill-opacity:1;fill-rule:evenodd;stroke:none" d="m 1824.2606,758.61 c 8.79,0 15.9,-7.12 15.9,-15.9 l 0,0 c 0,-8.79 -7.11,-15.91 -15.9,-15.91 l -63.62,0 c -8.79,0 -15.91,7.12 -15.91,15.91 l 0,0 c 0,8.78 7.12,15.9 15.91,15.9 l 63.62,0"></path><path id="strokePath67" style="fill:#6c757d;fill-opacity:1;fill-rule:evenodd;stroke:none" d="m 1649.3006,647.28 c 0,-8.79 7.13,-15.91 15.91,-15.91 l 0,0 c 8.78,0 15.9,7.12 15.9,15.91 l 0,127.24 c 0,8.78 -7.12,15.9 -15.9,15.9 l 0,0 c -8.78,0 -15.91,-7.12 -15.91,-15.9 l 0,-127.24"></path><path id="strokePath68" style="fill:#6c757d;fill-opacity:1;fill-rule:evenodd;stroke:none" d="m 1617.4906,551.84 c 0,-8.78 7.12,-15.9 15.91,-15.9 l 0,0 c 8.78,0 15.9,7.12 15.9,15.9 l 0,63.63 c 0,8.78 -7.12,15.9 -15.9,15.9 l 0,0 c -8.79,0 -15.91,-7.12 -15.91,-15.9 l 0,-63.63"></path><path id="strokePath69" style="fill:#6c757d;fill-opacity:1;fill-rule:evenodd;stroke:none" d="m 1585.6806,504.13 c 0,-8.78 7.12,-15.91 15.91,-15.91 8.78,0 15.9,7.13 15.9,15.91 0,8.78 -7.12,15.91 -15.9,15.91 -8.79,0 -15.91,-7.13 -15.91,-15.91"></path><path id="strokePath70" style="fill:#6c757d;fill-opacity:1;fill-rule:evenodd;stroke:none" d="m 1585.6806,456.41 c 0,-8.78 7.12,-15.9 15.91,-15.9 8.78,0 15.9,7.12 15.9,15.9 0,8.79 -7.12,15.91 -15.9,15.91 -8.79,0 -15.91,-7.12 -15.91,-15.91"></path><path id="strokePath71" style="fill:#6c757d;fill-opacity:1;fill-rule:evenodd;stroke:none" d="m 981.35962,181.33 c 0,-9.67 7.121,-17.5 15.906,-17.5 l 0,0 c 8.78498,0 15.90498,7.83 15.90498,17.5 l 0,34.99 c 0,9.66 -7.12,17.49 -15.90498,17.49 l 0,0 c -8.785,0 -15.906,-7.83 -15.906,-17.49 l 0,-34.99"></path></svg>