<?xml version="1.0" encoding="UTF-8"?>
<!DOCTYPE svg PUBLIC "-//W3C//DTD SVG 1.1//EN" "http://www.w3.org/Graphics/SVG/1.1/DTD/svg11.dtd">
<svg xmlns="http://www.w3.org/2000/svg" version="1.1" width="415px" height="415px" style="shape-rendering:geometricPrecision; text-rendering:geometricPrecision; image-rendering:optimizeQuality; fill-rule:evenodd; clip-rule:evenodd" xmlns:xlink="http://www.w3.org/1999/xlink">
<g><path style="opacity:1" fill="#fefefe" d="M -0.5,-0.5 C 137.833,-0.5 276.167,-0.5 414.5,-0.5C 414.5,137.833 414.5,276.167 414.5,414.5C 276.167,414.5 137.833,414.5 -0.5,414.5C -0.5,276.167 -0.5,137.833 -0.5,-0.5 Z"/></g>
<g><path style="opacity:1" fill="#fa70a9" d="M 346.5,151.5 C 339.275,131.052 328.441,112.719 314,96.5C 316.66,103.505 319.66,110.505 323,117.5C 337.7,152.797 341.033,189.13 333,226.5C 328.802,244.066 321.969,260.566 312.5,276C 312.905,276.945 313.572,277.612 314.5,278C 318.554,278.694 322.554,278.527 326.5,277.5C 326.389,278.117 326.056,278.617 325.5,279C 320.78,279.717 316.114,279.55 311.5,278.5C 309.093,277.206 306.926,275.539 305,273.5C 300.867,266.881 296.034,260.881 290.5,255.5C 285.121,251.802 279.121,250.635 272.5,252C 271.29,253.039 270.29,254.206 269.5,255.5C 264.066,262.174 258.732,269.007 253.5,276C 248.289,279.59 242.622,280.423 236.5,278.5C 229.862,270.859 223.196,263.192 216.5,255.5C 215.025,253.59 213.025,252.424 210.5,252C 200.036,249.65 193.036,253.483 189.5,263.5C 188.5,263.833 187.833,264.5 187.5,265.5C 180.207,280.843 169.874,283.51 156.5,273.5C 153.642,267.796 150.142,262.463 146,257.5C 144.729,256.117 143.229,255.117 141.5,254.5C 133.213,249.662 125.713,250.662 119,257.5C 117.223,260.059 115.723,262.726 114.5,265.5C 113.094,265.973 112.427,266.973 112.5,268.5C 109.361,272.47 105.695,275.97 101.5,279C 93.7257,281.243 87.559,279.077 83,272.5C 60.2523,230.593 56.2523,186.926 71,141.5C 89.8803,92.1536 124.714,60.3202 175.5,46C 241.936,35.3101 293.769,57.8101 331,113.5C 338.141,125.437 343.308,138.104 346.5,151.5 Z"/></g>
<g><path style="opacity:1" fill="#fefdfe" d="M 214.5,84.5 C 218.94,86.5376 223.607,88.2042 228.5,89.5C 252.515,100.834 267.515,119.5 273.5,145.5C 274.199,155.151 274.532,164.817 274.5,174.5C 269.564,209.268 249.564,228.102 214.5,231C 191.756,234.884 171.09,230.217 152.5,217C 142.678,208.188 136.345,197.355 133.5,184.5C 131.806,173.914 131.14,163.247 131.5,152.5C 134.962,126.733 147.629,106.9 169.5,93C 183.446,84.5971 198.446,81.7638 214.5,84.5 Z"/></g>
<g><path style="opacity:1" fill="#fdb0cf" d="M 214.5,84.5 C 219.703,85.0094 224.37,86.6761 228.5,89.5C 223.607,88.2042 218.94,86.5376 214.5,84.5 Z"/></g>
<g><path style="opacity:1" fill="#e24ea6" d="M 346.5,151.5 C 348.163,153.438 348.829,155.772 348.5,158.5C 348.41,161.152 349.076,163.485 350.5,165.5C 355.162,196.23 352.328,226.23 342,255.5C 339.091,262.324 335.424,268.658 331,274.5C 329.729,275.883 328.229,276.883 326.5,277.5C 322.554,278.527 318.554,278.694 314.5,278C 313.572,277.612 312.905,276.945 312.5,276C 321.969,260.566 328.802,244.066 333,226.5C 341.033,189.13 337.7,152.797 323,117.5C 319.66,110.505 316.66,103.505 314,96.5C 328.441,112.719 339.275,131.052 346.5,151.5 Z"/></g>
<g><path style="opacity:1" fill="#0d0d78" d="M 209.5,126.5 C 210.254,131.463 210.587,136.463 210.5,141.5C 205.696,157.913 194.696,165.413 177.5,164C 165.902,160.244 159.236,152.411 157.5,140.5C 157.392,135.13 157.725,129.797 158.5,124.5C 165.586,108.127 177.586,102.961 194.5,109C 201.867,112.862 206.867,118.696 209.5,126.5 Z"/></g>
<g><path style="opacity:1" fill="#f9f9fc" d="M 173.5,115.5 C 189.424,114.574 194.924,121.574 190,136.5C 185.464,141.152 179.964,142.652 173.5,141C 165.257,135.907 163.424,129.074 168,120.5C 169.812,118.7 171.645,117.033 173.5,115.5 Z"/></g>
<g><path style="opacity:1" fill="#bbbcda" d="M 209.5,126.5 C 210.991,129.186 211.657,132.186 211.5,135.5C 211.495,137.696 211.162,139.696 210.5,141.5C 210.587,136.463 210.254,131.463 209.5,126.5 Z"/></g>
<g><path style="opacity:1" fill="#5e5ea7" d="M 158.5,124.5 C 157.725,129.797 157.392,135.13 157.5,140.5C 156.352,136.019 156.185,131.352 157,126.5C 157.278,125.584 157.778,124.918 158.5,124.5 Z"/></g>
<g><path style="opacity:1" fill="#fed3e4" d="M 273.5,145.5 C 274.993,151.092 275.659,156.926 275.5,163C 275.499,167.015 275.165,170.849 274.5,174.5C 274.532,164.817 274.199,155.151 273.5,145.5 Z"/></g>
<g><path style="opacity:1" fill="#f9a8cb" d="M 348.5,158.5 C 349.924,160.515 350.59,162.848 350.5,165.5C 349.076,163.485 348.41,161.152 348.5,158.5 Z"/></g>
<g><path style="opacity:1" fill="#fdaacb" d="M 131.5,152.5 C 131.14,163.247 131.806,173.914 133.5,184.5C 131.87,182.974 131.037,180.974 131,178.5C 130.176,169.657 130.343,160.99 131.5,152.5 Z"/></g>
<g><path style="opacity:1" fill="#3c3e76" d="M 141.5,254.5 C 138.68,254.248 136.014,254.748 133.5,256C 127.028,263.812 120.694,271.645 114.5,279.5C 114.5,274.833 114.5,270.167 114.5,265.5C 115.723,262.726 117.223,260.059 119,257.5C 125.713,250.662 133.213,249.662 141.5,254.5 Z"/></g>
<g><path style="opacity:1" fill="#3a3e76" d="M 216.5,255.5 C 213.774,255.264 211.441,256.097 209.5,258C 204.714,263.735 200.548,269.901 197,276.5C 194.914,279.094 192.414,281.094 189.5,282.5C 189.5,276.167 189.5,269.833 189.5,263.5C 193.036,253.483 200.036,249.65 210.5,252C 213.025,252.424 215.025,253.59 216.5,255.5 Z"/></g>
<g><path style="opacity:1" fill="#383c75" d="M 290.5,255.5 C 284.724,261.449 279.891,268.116 276,275.5C 274.289,278.046 272.123,280.046 269.5,281.5C 269.5,272.833 269.5,264.167 269.5,255.5C 270.29,254.206 271.29,253.039 272.5,252C 279.121,250.635 285.121,251.802 290.5,255.5 Z"/></g>
<g><path style="opacity:1" fill="#5057a6" d="M 141.5,254.5 C 143.229,255.117 144.729,256.117 146,257.5C 150.142,262.463 153.642,267.796 156.5,273.5C 156.667,285.171 156.5,296.838 156,308.5C 151.195,321.289 142.028,326.456 128.5,324C 121.428,320.437 116.761,314.937 114.5,307.5C 114.5,298.167 114.5,288.833 114.5,279.5C 120.694,271.645 127.028,263.812 133.5,256C 136.014,254.748 138.68,254.248 141.5,254.5 Z"/></g>
<g><path style="opacity:1" fill="#5057a6" d="M 216.5,255.5 C 223.196,263.192 229.862,270.859 236.5,278.5C 236.667,300.836 236.5,323.169 236,345.5C 232,360.834 222.167,367.334 206.5,365C 197.105,361.771 191.439,355.271 189.5,345.5C 189.5,324.5 189.5,303.5 189.5,282.5C 192.414,281.094 194.914,279.094 197,276.5C 200.548,269.901 204.714,263.735 209.5,258C 211.441,256.097 213.774,255.264 216.5,255.5 Z"/></g>
<g><path style="opacity:1" fill="#4f57a6" d="M 290.5,255.5 C 296.034,260.881 300.867,266.881 305,273.5C 306.926,275.539 309.093,277.206 311.5,278.5C 311.667,291.837 311.5,305.171 311,318.5C 304.222,334.302 293.056,338.469 277.5,331C 274.727,328.617 272.561,325.783 271,322.5C 269.573,308.893 269.073,295.226 269.5,281.5C 272.123,280.046 274.289,278.046 276,275.5C 279.891,268.116 284.724,261.449 290.5,255.5 Z"/></g>
<g><path style="opacity:1" fill="#b3b5d4" d="M 114.5,265.5 C 114.5,270.167 114.5,274.833 114.5,279.5C 114.5,288.833 114.5,298.167 114.5,307.5C 113.833,294.5 113.167,281.5 112.5,268.5C 112.427,266.973 113.094,265.973 114.5,265.5 Z"/></g>
<g><path style="opacity:1" fill="#c3c4de" d="M 189.5,263.5 C 189.5,269.833 189.5,276.167 189.5,282.5C 189.5,303.5 189.5,324.5 189.5,345.5C 188.833,318.833 188.167,292.167 187.5,265.5C 187.833,264.5 188.5,263.833 189.5,263.5 Z"/></g>
</svg>
