<svg xmlns="http://www.w3.org/2000/svg" width="1422" height="230" viewBox="0 0 1422 230" version="1.1"><path d="M 85.756 29.024 C 77.941 30.252, 66.999 34.171, 60.191 38.179 C 52.946 42.445, 40.445 54.946, 36.179 62.191 C 28.449 75.320, 25.013 91.576, 26.835 106.401 C 29.191 125.571, 36.156 139.465, 50.447 153.500 C 66.391 169.158, 87.484 179.246, 117.141 185.399 C 124.438 186.912, 124.530 186.905, 128.116 184.537 C 132.108 181.901, 145 169.225, 145 167.936 C 145 167.489, 142.863 166.823, 140.250 166.457 C 122.290 163.941, 99.338 157.650, 87.488 151.994 C 72.429 144.807, 60.499 134.022, 55.104 122.718 C 51.251 114.644, 50.055 109.286, 50.024 99.960 C 49.961 80.462, 59.534 64.788, 76.683 56.311 C 84.270 52.561, 84.578 52.500, 95.947 52.500 C 107.215 52.500, 107.692 52.592, 115.280 56.215 C 125.625 61.155, 132.845 68.375, 137.785 78.720 C 141.342 86.169, 141.500 86.947, 141.500 97 C 141.500 107.019, 141.333 107.850, 137.851 115.140 C 133.986 123.234, 123.719 135.151, 116.006 140.496 C 113.803 142.023, 112 143.641, 112 144.092 C 112 145.367, 126.953 149.782, 133.950 150.574 L 140.230 151.284 146.977 144.166 C 159.157 131.316, 165.416 115.411, 165.340 97.500 C 165.272 81.319, 160.166 66.814, 150.174 54.410 C 134.949 35.512, 109.155 25.347, 85.756 29.024" stroke="none" fill="#ffffff" fill-rule="evenodd"/><path d="M 77.500 1.627 C 47.307 6.169, 22.141 16.521, 5.737 31.145 L 1.973 34.500 0.970 55.500 C -0.428 84.786, 0.976 115.046, 4.342 128.119 C 9.705 148.950, 21.764 168.679, 40.725 187.639 C 54.434 201.349, 74.811 216.690, 91.593 225.937 L 95.687 228.192 100.878 225.562 C 107.156 222.380, 126.554 209.364, 133.485 203.681 C 162.814 179.635, 181.475 153.314, 188.108 126.635 C 189.625 120.534, 190.315 113.250, 190.870 97.500 C 191.598 76.861, 190.656 35.871, 189.409 33.852 C 187.926 31.454, 172.648 21.022, 164.415 16.787 C 143.398 5.975, 126.399 1.973, 99.500 1.506 C 89.050 1.324, 79.150 1.379, 77.500 1.627 M 85.756 29.024 C 77.941 30.252, 66.999 34.171, 60.191 38.179 C 52.946 42.445, 40.445 54.946, 36.179 62.191 C 28.449 75.320, 25.013 91.576, 26.835 106.401 C 29.191 125.571, 36.156 139.465, 50.447 153.500 C 66.391 169.158, 87.484 179.246, 117.141 185.399 C 124.438 186.912, 124.530 186.905, 128.116 184.537 C 132.108 181.901, 145 169.225, 145 167.936 C 145 167.489, 142.863 166.823, 140.250 166.457 C 122.290 163.941, 99.338 157.650, 87.488 151.994 C 72.429 144.807, 60.499 134.022, 55.104 122.718 C 51.251 114.644, 50.055 109.286, 50.024 99.960 C 49.961 80.462, 59.534 64.788, 76.683 56.311 C 84.270 52.561, 84.578 52.500, 95.947 52.500 C 107.215 52.500, 107.692 52.592, 115.280 56.215 C 125.625 61.155, 132.845 68.375, 137.785 78.720 C 141.342 86.169, 141.500 86.947, 141.500 97 C 141.500 107.019, 141.333 107.850, 137.851 115.140 C 133.986 123.234, 123.719 135.151, 116.006 140.496 C 113.803 142.023, 112 143.641, 112 144.092 C 112 145.367, 126.953 149.782, 133.950 150.574 L 140.230 151.284 146.977 144.166 C 159.157 131.316, 165.416 115.411, 165.340 97.500 C 165.272 81.319, 160.166 66.814, 150.174 54.410 C 134.949 35.512, 109.155 25.347, 85.756 29.024" stroke="none" fill="#ec2c2c" fill-rule="evenodd"/><path d="M 298.500 59.641 C 276.269 63.012, 258.738 78.167, 252.393 99.500 C 250.026 107.458, 250.039 122.380, 252.420 130.457 C 260.114 156.556, 282.791 174.575, 318.663 183.095 C 323.308 184.198, 327.963 184.829, 329.009 184.497 C 331.036 183.854, 340 174.389, 340 172.892 C 340 172.401, 339.297 172, 338.438 172 C 337.579 172, 332.597 171.017, 327.367 169.816 L 317.858 167.631 324.179 165.495 C 340.600 159.946, 353.868 145.454, 358.515 127.992 C 360.253 121.461, 360.427 110.161, 358.903 102.799 C 355.180 84.814, 340.742 68.525, 323.102 62.407 C 316.568 60.141, 304.298 58.761, 298.500 59.641 M 544 112 L 544 164 546.788 164 C 550.770 164, 558.274 159.941, 559.732 157 C 560.663 155.120, 560.974 142.782, 560.985 107.250 L 561 60 552.500 60 L 544 60 544 112 M 293.500 77.993 C 271.576 85.345, 260.929 110.195, 270.967 130.585 C 280.445 149.837, 302.026 157.544, 321.496 148.631 C 344.947 137.894, 350.647 106.172, 332.442 87.706 C 322.346 77.466, 306.707 73.565, 293.500 77.993 M 1135 124.500 L 1135 164 1139.500 164 L 1144 164 1144 159.896 L 1144 155.793 1147.677 159.022 C 1152.884 163.593, 1156.926 165, 1164.854 165 C 1173.491 165, 1180.852 161.527, 1185.706 155.163 C 1196.849 140.554, 1192.552 117.856, 1177.118 109.793 C 1172.765 107.519, 1170.484 107, 1164.846 107 C 1157.045 107, 1152.251 108.903, 1147.116 114.038 L 1144 117.154 1144 101.077 L 1144 85 1139.500 85 L 1135 85 1135 124.500 M 805.920 88.060 C 793.982 89.951, 786 98.302, 786 108.903 C 786 114.018, 787.463 117.797, 790.814 121.342 C 794.716 125.470, 799.820 127.782, 811.302 130.623 C 826.495 134.382, 831 137.588, 831 144.643 C 831 157.797, 809.494 160.947, 793.928 150.074 L 788.355 146.182 785.548 149.700 L 782.741 153.218 785.620 155.607 C 796.264 164.439, 814.993 167.842, 827.139 163.153 C 831.109 161.620, 837.124 155.947, 838.649 152.298 C 840.671 147.457, 840.376 138.129, 838.081 134.366 C 834.354 128.253, 827.882 124.795, 814 121.499 C 800.428 118.277, 795.915 114.903, 795.818 107.908 C 795.767 104.230, 796.268 103.143, 799.282 100.380 C 805.619 94.573, 815.373 94.664, 826.834 100.638 L 833.384 104.052 835.656 101.276 C 838.677 97.585, 838.575 96.901, 834.601 94.195 C 827.006 89.024, 815.448 86.551, 805.920 88.060 M 870.920 88.060 C 858.982 89.951, 851 98.302, 851 108.903 C 851 114.018, 852.463 117.797, 855.814 121.342 C 859.716 125.470, 864.820 127.782, 876.302 130.623 C 891.495 134.382, 896 137.588, 896 144.643 C 896 157.797, 874.494 160.947, 858.928 150.074 L 853.355 146.182 850.548 149.700 L 847.741 153.218 850.620 155.607 C 861.264 164.439, 879.993 167.842, 892.139 163.153 C 896.109 161.620, 902.124 155.947, 903.649 152.298 C 905.671 147.457, 905.376 138.129, 903.081 134.366 C 899.354 128.253, 892.882 124.795, 879 121.499 C 865.428 118.277, 860.915 114.903, 860.818 107.908 C 860.767 104.230, 861.268 103.143, 864.282 100.380 C 870.619 94.573, 880.373 94.664, 891.834 100.638 L 898.384 104.052 900.656 101.276 C 903.677 97.585, 903.575 96.901, 899.601 94.195 C 892.006 89.024, 880.448 86.551, 870.920 88.060 M 477.624 89.637 C 467.826 92.645, 459.866 99.729, 455.302 109.500 C 452.766 114.930, 452.500 116.544, 452.500 126.500 C 452.500 136.450, 452.760 138.029, 455.222 143.037 C 459.350 151.436, 464.225 156.493, 471.771 160.208 C 477.984 163.267, 479.168 163.500, 488.479 163.500 C 499.334 163.500, 504.206 161.867, 510.250 156.203 L 513 153.626 513 158.813 C 513 163.088, 513.308 163.999, 514.750 163.994 C 518.881 163.981, 524.055 161.723, 526.436 158.894 L 529 155.847 529 122.923 L 529 90 521 90 L 513 90 513 93.993 L 513 97.987 508.458 94.520 C 500.322 88.310, 488.198 86.390, 477.624 89.637 M 663.030 90.113 C 649.696 95.434, 644.993 112.926, 654.374 122.307 C 656.185 124.119, 662.272 128.208, 667.901 131.395 C 674.068 134.887, 678.458 138.046, 678.950 139.345 C 680.359 143.070, 677.884 147.320, 673.386 148.900 C 668.854 150.492, 667.664 150.074, 659.890 144.161 C 655.806 141.054, 655.068 140.848, 649.288 141.206 C 645.872 141.417, 642.780 141.887, 642.417 142.250 C 641.390 143.277, 646.769 151.778, 651.113 155.994 C 666.401 170.830, 690.728 164.980, 695.106 145.415 C 697.601 134.269, 691.915 126.005, 676.368 118.182 C 672.041 116.004, 667.659 113.290, 666.631 112.151 C 664.111 109.358, 665.134 105.601, 668.834 104.069 C 672.402 102.591, 676.147 103.480, 679.521 106.607 L 682.121 109.017 687.027 104.880 C 691 101.530, 691.753 100.408, 690.989 98.980 C 689.627 96.434, 684.022 91.916, 680.282 90.348 C 676.581 88.798, 666.664 88.662, 663.030 90.113 M 919 126.500 L 919 164 945 164 L 971 164 971 160 L 971 156 949.500 156 L 928 156 928 122.500 L 928 89 923.500 89 L 919 89 919 126.500 M 1013 126.500 L 1013 164 1039 164 L 1065 164 1065 160 L 1065 156 1043.500 156 L 1022 156 1022 122.500 L 1022 89 1017.500 89 L 1013 89 1013 126.500 M 373.243 115.750 C 373.734 144.539, 374.290 147.474, 380.662 154.918 C 385.874 161.008, 390.952 163.260, 400.670 163.794 C 409.945 164.303, 415.762 162.809, 421.477 158.450 L 425 155.763 425 159.881 C 425 163.492, 425.277 163.997, 427.250 163.978 C 430.660 163.945, 437.700 160.429, 438.919 158.151 C 439.631 156.821, 440 144.843, 440 123.066 L 440 90 432.065 90 L 424.131 90 423.815 113.750 C 423.526 135.509, 423.329 137.790, 421.465 140.965 C 417.273 148.099, 407.035 150.879, 398.635 147.163 C 394.904 145.512, 393.541 144.205, 391.992 140.793 C 390.242 136.937, 390.042 134.131, 390.022 113.250 L 390 90 381.402 90 L 372.803 90 373.243 115.750 M 571.276 91.250 C 573.467 96.841, 594.245 149.601, 595.810 153.548 L 597.812 158.596 591.907 172.548 C 588.660 180.222, 586.002 186.613, 586.001 186.750 C 586.001 186.887, 588.264 187, 591.032 187 C 596.635 187, 601.643 185.243, 604.174 182.388 C 605.442 180.957, 642 91.993, 642 90.337 C 642 90.152, 638.063 90.002, 633.250 90.005 L 624.500 90.009 615.572 113.526 C 610.661 126.461, 606.342 136.696, 605.974 136.272 C 605.605 135.847, 601.523 125.268, 596.902 112.763 L 588.500 90.025 579.643 90.013 C 572.959 90.003, 570.906 90.307, 571.276 91.250 M 483.759 104.373 C 478.507 106.317, 475.516 108.443, 472.705 112.229 C 464.063 123.868, 467.816 140.414, 480.460 146.414 C 495.246 153.430, 510.986 144.226, 512.706 127.558 C 513.301 121.792, 510.806 114.566, 506.701 110.165 C 501.445 104.530, 490.678 101.812, 483.759 104.373 M 1082.561 108.893 C 1076.938 110.873, 1076.299 111.893, 1078.043 116.103 C 1078.942 118.274, 1079.731 118.918, 1080.893 118.432 C 1090.062 114.596, 1099.568 113.966, 1105.016 116.835 C 1108.848 118.853, 1111.996 123.988, 1111.998 128.225 C 1112 130.782, 1111.799 130.905, 1108.750 130.225 C 1106.963 129.826, 1101.212 129.500, 1095.971 129.500 C 1087.709 129.500, 1085.781 129.840, 1081.471 132.059 C 1074.513 135.642, 1072 139.716, 1072 147.416 C 1072 152.272, 1072.509 154.284, 1074.463 157.161 C 1081.041 166.841, 1100.324 167.955, 1110.250 159.229 C 1111.872 157.803, 1112 157.921, 1112 160.845 C 1112 163.918, 1112.118 164, 1116.500 164 L 1121 164 1120.978 143.250 C 1120.959 125.218, 1120.714 121.976, 1119.110 118.500 C 1116.876 113.659, 1113.710 110.612, 1108.768 108.548 C 1103.655 106.411, 1089.066 106.604, 1082.561 108.893 M 1210.274 109.043 C 1204.509 111.965, 1202 116.298, 1202 123.335 C 1202 128.402, 1202.333 129.266, 1205.506 132.439 C 1208.231 135.164, 1211.227 136.634, 1218.946 139.032 C 1231.396 142.900, 1234.218 144.938, 1233.804 149.765 C 1233.094 158.031, 1222.118 159.855, 1209.822 153.752 L 1202.952 150.342 1200.832 153.773 C 1198.393 157.718, 1198.303 157.601, 1207 161.808 C 1214.929 165.644, 1227.562 166.112, 1233.992 162.808 C 1240.163 159.637, 1243 155.108, 1243 148.429 C 1243 139.667, 1238.734 135.991, 1222.261 130.560 C 1212.497 127.340, 1209.559 124.564, 1211.134 120.047 C 1213.151 114.258, 1223.080 113.059, 1232.663 117.446 L 1238.076 119.924 1240.034 116.712 C 1241.111 114.945, 1241.994 113.218, 1241.996 112.873 C 1241.998 112.528, 1239.638 111.196, 1236.750 109.913 C 1229.098 106.513, 1216.110 106.086, 1210.274 109.043 M 1156.007 116.538 C 1139.386 124.009, 1139.527 148.473, 1156.232 155.452 C 1163.066 158.308, 1172.710 156.424, 1177.212 151.355 C 1182.494 145.407, 1183.785 133.319, 1179.979 125.456 C 1175.811 116.846, 1164.600 112.675, 1156.007 116.538 M 1092.500 137.006 C 1082.811 138.467, 1078.685 144.623, 1082.479 151.959 C 1084.478 155.825, 1091.464 158.501, 1097.174 157.588 C 1106.658 156.072, 1112.471 150.112, 1111.833 142.558 C 1111.542 139.112, 1111.122 138.526, 1108.500 137.907 C 1103.593 136.747, 1096.768 136.363, 1092.500 137.006 M 709.500 146.208 C 704.029 149.345, 703.386 155.540, 708.046 160.200 C 710.680 162.834, 711.594 163.166, 714.796 162.654 C 719.666 161.874, 722 158.896, 722 153.462 C 722 149.990, 721.485 148.740, 719.365 147.073 C 716.458 144.786, 712.574 144.445, 709.500 146.208 M 713.665 148.717 C 717.033 149.140, 718.687 151.467, 717.034 153.459 C 716.352 154.281, 716.479 155.273, 717.435 156.581 C 718.776 158.414, 718.867 158.378, 719.529 155.742 C 720.578 151.559, 717.822 147.957, 713.727 148.160 L 710.500 148.320 713.665 148.717 M 708.750 150.332 C 706.696 155.349, 709.032 160, 713.607 160 C 715.863 160, 715.966 159.810, 714.829 157.750 C 713.726 155.751, 713.545 155.702, 713.210 157.305 C 712.492 160.738, 710.498 158.327, 710 153.422 C 709.647 149.951, 709.279 149.040, 708.750 150.332" stroke="none" fill="#3c4147" fill-rule="evenodd"/></svg>