<svg xmlns="http://www.w3.org/2000/svg" width="210" height="230" viewBox="0 0 210 230" version="1.1"><path d="M 85.756 29.024 C 77.941 30.252, 66.999 34.171, 60.191 38.179 C 52.946 42.445, 40.445 54.946, 36.179 62.191 C 28.449 75.320, 25.013 91.576, 26.835 106.401 C 29.191 125.571, 36.156 139.465, 50.447 153.500 C 66.391 169.158, 87.484 179.246, 117.141 185.399 C 124.438 186.912, 124.530 186.905, 128.116 184.537 C 132.108 181.901, 145 169.225, 145 167.936 C 145 167.489, 142.863 166.823, 140.250 166.457 C 122.290 163.941, 99.338 157.650, 87.488 151.994 C 72.429 144.807, 60.499 134.022, 55.104 122.718 C 51.251 114.644, 50.055 109.286, 50.024 99.960 C 49.961 80.462, 59.534 64.788, 76.683 56.311 C 84.270 52.561, 84.578 52.500, 95.947 52.500 C 107.215 52.500, 107.692 52.592, 115.280 56.215 C 125.625 61.155, 132.845 68.375, 137.785 78.720 C 141.342 86.169, 141.500 86.947, 141.500 97 C 141.500 107.019, 141.333 107.850, 137.851 115.140 C 133.986 123.234, 123.719 135.151, 116.006 140.496 C 113.803 142.023, 112 143.641, 112 144.092 C 112 145.367, 126.953 149.782, 133.950 150.574 L 140.230 151.284 146.977 144.166 C 159.157 131.316, 165.416 115.411, 165.340 97.500 C 165.272 81.319, 160.166 66.814, 150.174 54.410 C 134.949 35.512, 109.155 25.347, 85.756 29.024" stroke="none" fill="#ffffff" fill-rule="evenodd"/><path d="M 77.500 1.627 C 47.307 6.169, 22.141 16.521, 5.737 31.145 L 1.973 34.500 0.970 55.500 C -0.428 84.786, 0.976 115.046, 4.342 128.119 C 9.705 148.950, 21.764 168.679, 40.725 187.639 C 54.434 201.349, 74.811 216.690, 91.593 225.937 L 95.687 228.192 100.878 225.562 C 107.156 222.380, 126.554 209.364, 133.485 203.681 C 162.814 179.635, 181.475 153.314, 188.108 126.635 C 189.625 120.534, 190.315 113.250, 190.870 97.500 C 191.598 76.861, 190.656 35.871, 189.409 33.852 C 187.926 31.454, 172.648 21.022, 164.415 16.787 C 143.398 5.975, 126.399 1.973, 99.500 1.506 C 89.050 1.324, 79.150 1.379, 77.500 1.627 M 85.756 29.024 C 77.941 30.252, 66.999 34.171, 60.191 38.179 C 52.946 42.445, 40.445 54.946, 36.179 62.191 C 28.449 75.320, 25.013 91.576, 26.835 106.401 C 29.191 125.571, 36.156 139.465, 50.447 153.500 C 66.391 169.158, 87.484 179.246, 117.141 185.399 C 124.438 186.912, 124.530 186.905, 128.116 184.537 C 132.108 181.901, 145 169.225, 145 167.936 C 145 167.489, 142.863 166.823, 140.250 166.457 C 122.290 163.941, 99.338 157.650, 87.488 151.994 C 72.429 144.807, 60.499 134.022, 55.104 122.718 C 51.251 114.644, 50.055 109.286, 50.024 99.960 C 49.961 80.462, 59.534 64.788, 76.683 56.311 C 84.270 52.561, 84.578 52.500, 95.947 52.500 C 107.215 52.500, 107.692 52.592, 115.280 56.215 C 125.625 61.155, 132.845 68.375, 137.785 78.720 C 141.342 86.169, 141.500 86.947, 141.500 97 C 141.500 107.019, 141.333 107.850, 137.851 115.140 C 133.986 123.234, 123.719 135.151, 116.006 140.496 C 113.803 142.023, 112 143.641, 112 144.092 C 112 145.367, 126.953 149.782, 133.950 150.574 L 140.230 151.284 146.977 144.166 C 159.157 131.316, 165.416 115.411, 165.340 97.500 C 165.272 81.319, 160.166 66.814, 150.174 54.410 C 134.949 35.512, 109.155 25.347, 85.756 29.024" stroke="none" fill="#ec2c2c" fill-rule="evenodd"/><path d="" stroke="none" fill="#3c4147" fill-rule="evenodd"/></svg>