<svg xmlns="http://www.w3.org/2000/svg" width="261" height="261" viewBox="0 0 261 261" version="1.1"><path d="M 214.728 71.810 L 203.956 75.446 194.897 73.083 C 183.700 70.161, 175.842 70.152, 169.101 73.052 C 162.908 75.716, 160.616 77.998, 164.128 78.004 C 169.745 78.013, 176.988 85.447, 176.996 91.212 C 177.013 103.092, 159.903 123.575, 135.072 141.404 C 123.435 149.758, 107.337 159.257, 98.793 162.811 C 80.814 170.287, 62.137 170.658, 51.975 163.740 C 42.651 157.392, 38.933 148.087, 38.094 129 L 37.500 115.500 35.336 121.056 C 30.986 132.229, 29.821 146.359, 32.360 157.147 C 36.101 173.038, 51.576 187.346, 69.603 191.581 C 80.347 194.105, 100.835 193.113, 112 189.529 C 126.389 184.910, 145.483 174.496, 159.250 163.757 C 164.211 159.888, 163.989 161.308, 158.609 167.867 C 152.296 175.563, 145.002 181.195, 134.602 186.402 C 124.258 191.582, 125.232 192.055, 140 189.024 C 176.620 181.506, 198 152.279, 198 109.735 C 198 103.683, 198.547 96.880, 199.216 94.616 C 200.694 89.613, 207.297 82.737, 218.850 74.171 C 223.428 70.777, 226.797 68.039, 226.337 68.087 C 225.876 68.135, 220.653 69.810, 214.728 71.810" stroke="none" fill="#178c9d" fill-rule="evenodd"/></svg>