<svg xmlns="http://www.w3.org/2000/svg" width="30" height="30" viewBox="0 0 276 400" version="1.1"><path d="M 64.750 36.346 C 29.687 55.680, 1 71.869, 1 72.323 C 1 73.651, 129.089 377.405, 130.090 378.450 C 130.637 379.021, 131 351.011, 131 308.200 L 131 237 108.500 237 L 86 237 86 220.500 L 86 204 100 204 L 114 204 114 159.961 L 114 115.922 105.271 116.211 L 96.542 116.500 95.333 127 C 94.668 132.775, 93.839 139.862, 93.490 142.750 L 92.856 148 77.428 148 L 62 148 62 116.500 L 62 85 96.500 85 L 131 85 131 43 C 131 10.015, 130.732 1.021, 129.750 1.097 C 129.063 1.151, 99.813 17.013, 64.750 36.346 M 216.446 116.500 C 216.447 134.100, 216.583 141.159, 216.749 132.187 C 216.914 123.215, 216.914 108.815, 216.748 100.187 C 216.581 91.559, 216.446 98.900, 216.446 116.500 M 163.460 160 C 163.460 184.475, 163.590 194.488, 163.749 182.250 C 163.908 170.013, 163.908 149.988, 163.749 137.750 C 163.590 125.513, 163.460 135.525, 163.460 160 M 181.158 122 C 181.158 123.375, 181.385 123.938, 181.662 123.250 C 181.940 122.563, 181.940 121.438, 181.662 120.750 C 181.385 120.063, 181.158 120.625, 181.158 122 M 182.195 130.500 C 182.215 132.150, 182.439 132.704, 182.693 131.731 C 182.947 130.758, 182.930 129.408, 182.656 128.731 C 182.382 128.054, 182.175 128.850, 182.195 130.500 M 183.195 138.500 C 183.215 140.150, 183.439 140.704, 183.693 139.731 C 183.947 138.758, 183.930 137.408, 183.656 136.731 C 183.382 136.054, 183.175 136.850, 183.195 138.500 M 184.079 146.583 C 184.127 147.748, 184.364 147.985, 184.683 147.188 C 184.972 146.466, 184.936 145.603, 184.604 145.271 C 184.272 144.939, 184.036 145.529, 184.079 146.583 M 191.409 220.500 C 191.408 229.850, 191.558 233.810, 191.743 229.299 C 191.928 224.789, 191.929 217.139, 191.745 212.299 C 191.562 207.460, 191.410 211.150, 191.409 220.500" stroke="none" fill="#4cab4c" fill-rule="evenodd"/><path d="M 145 53.393 L 145 85 181 85 L 217 85 217 116.500 L 217 148 200.618 148 L 184.236 148 182.438 132 L 180.641 116 172.320 116 L 164 116 164 160 L 164 204 178 204 L 192 204 192 220.500 L 192 237 168.500 237 L 145 237 145 318.700 C 145 368.988, 145.357 400.035, 145.929 399.450 C 146.962 398.393, 273.804 97.669, 274.553 94.500 C 274.964 92.761, 266.759 87.967, 211.763 57.809 C 176.968 38.730, 147.713 22.819, 146.750 22.452 C 145.106 21.826, 145 23.704, 145 53.393" stroke="none" fill="#046c34" fill-rule="evenodd"/></svg>
